HIERARCHY
ROOT Hips
{
	OFFSET 0.000000 0.000000 0.000000
	CHANNELS 6 Xposition Yposition Zposition Zrotation Yrotation Xrotation 
	JOINT LHipJoint
	{
		OFFSET 0.000000 0.000000 0.000000
		CHANNELS 3 Zrotation Yrotation Xrotation
		JOINT LeftUpLeg
		{
			OFFSET 1.363060 -1.794630 0.839290
			CHANNELS 3 Zrotation Yrotation Xrotation
			JOINT LeftLeg
			{
				OFFSET 2.448110 -6.726130 0.000000
				CHANNELS 3 Zrotation Yrotation Xrotation
				JOINT LeftFoot
				{
					OFFSET 2.562200 -7.039590 0.000000
					CHANNELS 3 Zrotation Yrotation Xrotation
					JOINT LeftToeBase
					{
						OFFSET 0.157640 -0.433110 2.322550
						CHANNELS 3 Zrotation Yrotation Xrotation
						End Site
						{
							OFFSET 0.000000 0.000000 0.000000
						}
					}
				}
			}
		}
	}
	JOINT RHipJoint
	{
		OFFSET 0.000000 0.000000 0.000000
		CHANNELS 3 Zrotation Yrotation Xrotation
		JOINT RightUpLeg
		{
			OFFSET -1.305520 -1.794630 0.839290
			CHANNELS 3 Zrotation Yrotation Xrotation
			JOINT RightLeg
			{
				OFFSET -2.542530 -6.985550 0.000000
				CHANNELS 3 Zrotation Yrotation Xrotation
				JOINT RightFoot
				{
					OFFSET -2.568260 -7.056230 0.000000
					CHANNELS 3 Zrotation Yrotation Xrotation
					JOINT RightToeBase
					{
						OFFSET -0.164730 -0.452590 2.363150
						CHANNELS 3 Zrotation Yrotation Xrotation
						End Site
						{
							OFFSET 0.000000 0.000000 0.000000
						}
					}
				}
			}
		}
	}
	JOINT LowerBack
	{
		OFFSET 0.000000 0.000000 0.000000
		CHANNELS 3 Zrotation Yrotation Xrotation
		JOINT Spine
		{
			OFFSET 0.028270 2.035590 -0.193380
			CHANNELS 3 Zrotation Yrotation Xrotation
			JOINT Spine1
			{
				OFFSET 0.056720 2.048850 -0.042750
				CHANNELS 3 Zrotation Yrotation Xrotation
				JOINT Neck
				{
					OFFSET 0.000000 0.000000 0.000000
					CHANNELS 3 Zrotation Yrotation Xrotation
					JOINT Neck1
					{
						OFFSET -0.054170 1.746240 0.172020
						CHANNELS 3 Zrotation Yrotation Xrotation
						JOINT Head
						{
							OFFSET 0.104070 1.761360 -0.123970
							CHANNELS 3 Zrotation Yrotation Xrotation
							End Site
							{
								OFFSET 0.000000 0.000000 0.000000
							}
						}
					}
				}
				JOINT LeftShoulder
				{
					OFFSET 0.000000 0.000000 0.000000
					CHANNELS 3 Zrotation Yrotation Xrotation
					JOINT LeftArm
					{
						OFFSET 3.362410 1.200890 -0.311210
						CHANNELS 3 Zrotation Yrotation Xrotation
						JOINT LeftForeArm
						{
							OFFSET 4.983000 -0.000000 -0.000000
							CHANNELS 3 Zrotation Yrotation Xrotation
							JOINT LeftHand
							{
								OFFSET 3.483560 -0.000000 -0.000000
								CHANNELS 3 Zrotation Yrotation Xrotation
								JOINT LeftFingerBase
								{
									OFFSET 0.000000 0.000000 0.000000
									CHANNELS 3 Zrotation Yrotation Xrotation
									JOINT LeftHandIndex1
									{
										OFFSET 0.715260 -0.000000 -0.000000
										CHANNELS 3 Zrotation Yrotation Xrotation
										End Site
										{
											OFFSET 0.000000 0.000000 0.000000
										}
									}
								}
								JOINT LThumb
								{
									OFFSET 0.000000 0.000000 0.000000
									CHANNELS 3 Zrotation Yrotation Xrotation
									End Site
									{
										OFFSET 0.000000 0.000000 0.000000
									}
								}
							}
						}
					}
				}
				JOINT RightShoulder
				{
					OFFSET 0.000000 0.000000 0.000000
					CHANNELS 3 Zrotation Yrotation Xrotation
					JOINT RightArm
					{
						OFFSET -3.136600 1.374050 -0.404650
						CHANNELS 3 Zrotation Yrotation Xrotation
						JOINT RightForeArm
						{
							OFFSET -5.241900 -0.000000 -0.000000
							CHANNELS 3 Zrotation Yrotation Xrotation
							JOINT RightHand
							{
								OFFSET -3.444170 -0.000000 -0.000000
								CHANNELS 3 Zrotation Yrotation Xrotation
								JOINT RightFingerBase
								{
									OFFSET 0.000000 0.000000 0.000000
									CHANNELS 3 Zrotation Yrotation Xrotation
									JOINT RightHandIndex1
									{
										OFFSET -0.622530 -0.000000 -0.000000
										CHANNELS 3 Zrotation Yrotation Xrotation
										End Site
										{
											OFFSET 0.000000 0.000000 0.000000
										}
									}
								}
								JOINT RThumb
								{
									OFFSET 0.000000 0.000000 0.000000
									CHANNELS 3 Zrotation Yrotation Xrotation
									End Site
									{
										OFFSET 0.000000 0.000000 0.000000
									}
								}
							}
						}
					}
				}
			}
		}
	}
}
MOTION
Frames: 9
Frame Time: 0.008333
0.558750 18.310911 0.337835 -3.215713 2.273143 36.098824 2.307173 5.424994 -0.217254 6.968351 -47.129712 -32.444568 -1.141441 1.813474 11.633517 -9.094491 34.737310 -25.828537 1.474100 7.671900 21.721800 -1.685778 -6.328007 2.542097 9.935539 27.770116 -32.332941 2.462545 1.055681 0.532693 5.516754 -27.535963 -12.215071 -1.541900 -7.838500 22.224600 1.952423 0.306564 14.511569 14.061006 2.341536 -10.796153 -3.651836 0.399703 -16.086507 -0.581013 1.498672 -13.365164 -4.980641 1.400911 -13.600419 -2.835300 0.396300 -3.246900 -10.756484 -1.763388 1.016422 -77.760157 -21.209828 69.323760 18.907511 -27.954494 -4.191578 1.037285 1.507020 10.023936 6.726909 24.056392 2.282700 -7.125000 0.000000 0.000000 -22.958300 51.032200 -3.572800 9.786226 3.561072 2.695925 77.222821 23.073146 43.402658 -19.579467 24.428467 -3.067260 -0.357256 0.295344 42.665528 -7.366022 3.704241 -0.451700 7.125000 0.000000 0.000000 14.844200 -26.156300 7.003700 
0.557949 18.308807 0.327716 -3.105721 2.170263 36.197199 2.299600 5.403155 -0.225251 6.905355 -47.045454 -32.558686 -1.153739 1.800012 11.564105 -9.071793 34.695429 -25.806899 1.501800 7.740600 21.928800 -1.712749 -6.305311 2.515488 9.739534 27.789670 -32.480054 2.460482 1.046596 0.525927 5.489598 -27.451492 -12.376361 -1.631000 -8.051100 22.869500 1.886789 0.301790 14.590179 13.878960 2.320715 -10.961600 -3.562954 0.397708 -16.116005 -0.457828 1.494869 -13.345587 -5.057097 1.394838 -13.530371 -2.870000 0.395600 -3.234500 -10.745393 -1.753946 1.026400 -77.735892 -21.197510 69.187217 18.834998 -27.858537 -4.158912 1.040611 1.499113 10.152567 6.730837 23.950586 2.274200 -7.125000 0.000000 0.000000 -22.902900 50.940300 -3.509800 9.801894 3.556821 2.711095 77.206345 23.060361 43.491582 -19.628246 24.491603 -3.084158 -0.352265 0.290012 42.594623 -7.281367 3.671217 -0.442600 7.125000 0.000000 0.000000 14.905500 -26.188600 7.022900 
0.555845 18.305901 0.316495 -2.969688 2.039281 36.277067 2.275774 5.387278 -0.240187 6.853529 -47.035321 -32.638499 -1.170753 1.773989 11.490878 -9.030430 34.659348 -25.955101 1.555900 7.872200 22.326700 -1.747885 -6.287502 2.485791 9.525295 27.814793 -32.610482 2.455315 1.037677 0.512753 5.498421 -27.485670 -12.373445 -1.644100 -8.081600 22.962200 1.814011 0.300014 14.753629 13.605905 2.296088 -11.179072 -3.452572 0.398559 -16.197645 -0.328588 1.502954 -13.331109 -5.089146 1.408361 -13.432932 -2.893800 0.402100 -3.216100 -10.723833 -1.741755 1.039742 -77.659922 -21.144564 69.112888 18.777380 -27.786404 -4.132741 1.062437 1.495851 10.208784 7.001588 23.970061 2.372100 -7.125000 0.000000 0.000000 -22.679800 50.998500 -3.506000 9.825740 3.545005 2.727102 77.222894 23.038313 43.581656 -19.631827 24.503985 -3.086964 -0.351600 0.279154 42.508354 -7.227675 3.556392 -0.426800 7.125000 0.000000 0.000000 14.952700 -26.293800 7.008300 
0.555544 18.304499 0.307378 -2.879278 1.970119 36.281967 2.268022 5.382317 -0.237803 6.704402 -46.939091 -32.635128 -1.178969 1.762068 11.435399 -9.042360 34.653353 -25.820011 1.551200 7.860900 22.292400 -1.763113 -6.280482 2.476378 9.396458 27.807372 -32.656795 2.451772 1.032200 0.504851 5.506311 -27.508628 -12.328090 -1.649900 -8.095200 23.003600 1.743593 0.277574 14.870598 13.525035 2.247219 -11.206549 -3.375150 0.386769 -16.289496 -0.307552 1.509530 -13.421991 -5.047553 1.439067 -13.267332 -2.882400 0.415600 -3.162900 -10.712872 -1.722494 1.041038 -77.660443 -21.144358 68.942750 18.708084 -27.695322 -4.099073 1.076451 1.499711 10.188703 7.169412 24.057772 2.439800 -7.125000 0.000000 0.000000 -22.579100 51.099500 -3.547000 9.831376 3.537509 2.733302 77.210695 23.112031 43.682935 -19.594709 24.468328 -3.075272 -0.343561 0.279721 42.495703 -7.139335 3.587765 -0.424500 7.125000 0.000000 0.000000 15.010900 -26.269100 7.046500 
0.556446 18.305300 0.300865 -2.900876 1.997724 36.282024 2.283597 5.375420 -0.233238 6.700515 -46.862082 -32.656917 -1.178348 1.760538 11.400953 -9.069077 34.658342 -25.634539 1.535400 7.822800 22.177000 -1.758233 -6.279757 2.481058 9.413943 27.797065 -32.682894 2.451268 1.030537 0.504853 5.497301 -27.481084 -12.319966 -1.650900 -8.097500 23.010700 1.766395 0.256768 14.878901 13.642299 2.231889 -11.154589 -3.406898 0.373606 -16.306475 -0.437282 1.518790 -13.412254 -4.953587 1.459049 -13.247536 -2.839700 0.424600 -3.156400 -10.711761 -1.722571 1.037963 -77.717546 -21.194684 68.756411 18.652380 -27.617092 -4.070198 1.067079 1.515382 10.182802 6.986313 24.225563 2.389200 -7.125000 0.000000 0.000000 -22.819600 51.213100 -3.654100 9.820464 3.532532 2.729051 77.128111 23.200319 43.899646 -19.582770 24.448536 -3.070790 -0.342428 0.275891 42.306092 -7.097702 3.569620 -0.420000 7.125000 0.000000 0.000000 15.041300 -26.286100 7.055500 
0.557648 18.304499 0.294854 -2.910214 2.024565 36.339597 2.313590 5.357877 -0.227718 6.631663 -46.652916 -32.787742 -1.159675 1.798304 11.399521 -9.223797 34.853635 -25.034973 1.401000 7.487500 21.168000 -1.774471 -6.273446 2.471093 9.430144 27.786258 -32.763758 2.446400 1.026149 0.494968 5.531202 -27.607054 -12.095905 -1.553500 -7.866600 22.309600 1.834168 0.228128 14.869626 13.654035 2.212271 -11.207549 -3.439249 0.353495 -16.301445 -0.471635 1.520386 -13.417756 -4.892487 1.472689 -13.137884 -2.817800 0.429900 -3.122600 -10.703056 -1.720040 1.041838 -77.726625 -21.209397 68.593905 18.582157 -27.520915 -4.037044 1.064596 1.514697 10.167639 6.960628 24.179773 2.375500 -7.125000 0.000000 0.000000 -22.818400 51.168200 -3.627900 9.817436 3.530087 2.733165 77.094265 23.257703 44.089683 -19.552747 24.406632 -3.060773 -0.347635 0.266427 42.136472 -7.109791 3.459636 -0.409100 7.125000 0.000000 0.000000 15.043100 -26.384100 7.020500 
0.557247 18.303797 0.288242 -2.921243 2.044271 36.362422 2.331811 5.337601 -0.224067 6.589220 -46.476217 -32.909618 -1.145585 1.844691 11.448650 -9.261802 34.861796 -24.694070 1.340900 7.331700 20.701800 -1.788186 -6.266234 2.459460 9.459675 27.776979 -32.803735 2.446822 1.024846 0.493311 5.543508 -27.658699 -12.078800 -1.567000 -7.899000 22.407800 1.902291 0.200270 14.911420 13.612057 2.188255 -11.274707 -3.458449 0.334458 -16.329734 -0.453451 1.538315 -13.415538 -4.834458 1.507808 -13.010439 -2.804300 0.444700 -3.085700 -10.690406 -1.714020 1.046317 -77.695654 -21.165815 68.389062 18.517475 -27.433028 -4.006393 1.073250 1.506748 10.229684 7.075427 24.084901 2.407800 -7.125000 0.000000 0.000000 -22.672000 51.103500 -3.565200 9.818460 3.527955 2.736998 77.111233 23.259086 44.106357 -19.510490 24.357335 -3.047123 -0.347479 0.269480 42.237511 -7.126164 3.478605 -0.412100 7.125000 0.000000 0.000000 15.030300 -26.367200 7.020300 
0.557648 18.303196 0.282631 -2.960159 2.069349 36.337454 2.345213 5.331741 -0.210647 6.614885 -46.429677 -32.971760 -1.133893 1.880832 11.522613 -9.253797 34.827931 -24.613578 1.326400 7.293500 20.587800 -1.788048 -6.267677 2.468346 9.512693 27.775849 -32.803819 2.447408 1.026542 0.495198 5.542499 -27.658010 -12.064776 -1.582500 -7.936200 22.520500 1.953819 0.178921 14.886801 13.655377 2.159454 -11.153476 -3.494068 0.321730 -16.330076 -0.462234 1.562593 -13.365010 -4.791827 1.526422 -13.133252 -2.793900 0.450600 -3.122800 -10.690262 -1.717381 1.035859 -77.664131 -21.220124 68.194929 18.461728 -27.354029 -3.978782 1.083303 1.500433 10.252808 7.222457 24.020825 2.454300 -7.125000 0.000000 0.000000 -22.513400 51.070900 -3.519300 9.817756 3.522407 2.725353 77.134257 23.319902 43.992131 -19.474555 24.315149 -3.034845 -0.347679 0.279122 42.497556 -7.184767 3.552181 -0.423400 7.125000 0.000000 0.000000 14.983200 -26.300600 7.021100 
0.558249 18.302395 0.276620 -2.995303 2.046789 36.320545 2.357091 5.325115 -0.194562 6.612624 -46.356978 -33.024093 -1.125220 1.918977 11.601281 -9.219067 34.743898 -24.569161 1.320300 7.277400 20.539700 -1.789540 -6.267287 2.475022 9.527699 27.807926 -32.818519 2.447300 1.028852 0.495619 5.542256 -27.661017 -12.075244 -1.591100 -7.956600 22.582400 1.980984 0.184563 14.843196 13.670482 2.159237 -11.032387 -3.521272 0.325250 -16.311341 -0.417701 1.563563 -13.320859 -4.822355 1.514009 -13.219554 -2.808600 0.444300 -3.150300 -10.695682 -1.717890 1.026867 -77.648876 -21.269589 68.031678 18.440243 -27.320477 -3.966688 1.082985 1.499948 10.317302 7.191348 24.013787 2.442400 -7.125000 0.000000 0.000000 -22.536300 51.059200 -3.516500 9.816497 3.521173 2.715562 77.104091 23.388128 43.911543 -19.432374 24.262528 -3.020898 -0.353893 0.291509 42.660595 -7.316750 3.644969 -0.441700 7.125000 0.000000 0.000000 14.884000 -26.213700 7.003000 
